<?xml version="1.0" encoding="UTF-8" standalone="no"?>
<!DOCTYPE svg PUBLIC "-//W3C//DTD SVG 1.1//EN" "http://www.w3.org/Graphics/SVG/1.1/DTD/svg11.dtd">
<svg width="100%" height="100%" viewBox="0 0 512 512" version="1.1" xmlns="http://www.w3.org/2000/svg" xmlns:xlink="http://www.w3.org/1999/xlink" xml:space="preserve" xmlns:serif="http://www.serif.com/" style="fill-rule:evenodd;clip-rule:evenodd;stroke-linejoin:round;stroke-miterlimit:2;">
    <g>
        <path d="M141.732,142.736C171.017,113.203 211.573,94.878 256.16,94.921C297.266,94.961 334.771,110.394 363.216,135.773C367.292,139.41 373.833,139.171 377.695,135.309L429.882,83.122C434.132,78.872 434.014,71.928 429.598,67.852C383.083,24.917 320.622,-0.991 252.099,0.029C182.82,1.06 120.153,29.838 74.63,75.633C69.554,80.739 75.491,142.554 75.491,142.554C75.491,142.554 113.157,171.552 141.732,142.736Z" style="fill:white;fill-rule:nonzero;"/>
        <path d="M141.732,142.736C171.017,113.203 211.573,94.878 256.16,94.921C297.266,94.961 334.771,110.394 363.216,135.773C367.292,139.41 373.833,139.171 377.695,135.309L407.643,105.361C405.035,103.345 402.463,101.228 399.953,99.006C360.91,64.428 310.112,42.425 253.722,43.017C195.24,43.631 142.711,67.485 104.73,105.732C100.577,109.914 98.946,142.62 98.946,142.62C98.946,142.62 103.819,142.179 141.732,142.736Z" style="fill:white;fill-rule:nonzero;"/>
        <path d="M94.931,254.544C94.529,299.861 112.841,340.902 142.597,370.407L119.758,419.694L75.485,437.519C28.943,391.228 0.1,327.168 0,256.371C-0.1,186.067 28.441,122.087 74.632,75.635L141.734,142.738C113.162,171.55 95.312,211.034 94.931,254.544Z" style="fill:white;fill-rule:nonzero;"/>
        <path d="M94.931,254.544C94.529,299.861 112.841,340.902 142.597,370.407L105.904,407.11C67.815,369.283 43.952,317.149 43.038,259.443C42.084,199.419 65.747,144.996 104.739,105.743L141.734,142.738C113.162,171.55 95.312,211.034 94.931,254.544Z" style="fill:white;fill-rule:nonzero;"/>
        <path d="M369.534,370.538C340.182,399.623 299.659,417.359 254.958,417.076C211.143,416.799 171.488,399.023 142.609,370.396L75.491,437.514C121.602,483.371 185.08,511.784 255.197,512C325.457,512.216 389.356,483.323 435.843,436.848L416.66,395.832L369.534,370.538Z" style="fill:white;fill-rule:nonzero;"/>
        <path d="M369.531,370.534C340.177,399.62 299.657,417.36 254.957,417.079C211.143,416.802 171.488,399.026 142.609,370.396L105.904,407.101C144.407,445.352 197.442,468.992 256,468.992C314.56,468.992 367.593,445.351 406.097,407.101L369.531,370.534Z" style="fill:white;fill-rule:nonzero;"/>
        <path d="M512,229.709C512,224.663 507.908,220.571 502.861,220.571L264.57,220.571C260.05,220.571 256.385,224.236 256.385,228.757L256.385,307.545C256.385,312.066 260.05,315.731 264.57,315.731L380.946,315.731C392.933,315.731 400.376,328.812 394.211,339.092C387.329,350.564 379.052,361.078 369.629,370.43C369.594,370.466 369.57,370.501 369.533,370.537L435.853,436.856C438.984,433.725 442.161,430.592 445.364,427.451C486.801,381.497 512,320.529 512,254.018L512,229.709Z" style="fill:white;fill-rule:nonzero;"/>
        <path d="M458.23,323.042C467.597,294.731 446.615,265.537 416.798,265.537L256.386,265.537L256.386,307.545C256.386,312.066 260.051,315.731 264.571,315.731L380.947,315.731C392.934,315.731 400.377,328.812 394.212,339.092C387.352,350.527 379.105,361.008 369.72,370.338C369.655,370.405 369.603,370.469 369.534,370.537L406.097,407.1C425.533,387.815 441.255,364.795 452.127,339.215C454.365,333.924 456.403,328.533 458.23,323.042Z" style="fill:white;fill-rule:nonzero;"/>
    </g>
</svg>
