<?xml version="1.0" encoding="UTF-8" standalone="no"?>
<!DOCTYPE svg PUBLIC "-//W3C//DTD SVG 1.1//EN" "http://www.w3.org/Graphics/SVG/1.1/DTD/svg11.dtd">
<svg width="100%" height="100%" viewBox="0 0 461 461" version="1.1" xmlns="http://www.w3.org/2000/svg" xmlns:xlink="http://www.w3.org/1999/xlink" xml:space="preserve" xmlns:serif="http://www.serif.com/" style="fill-rule:evenodd;clip-rule:evenodd;stroke-linejoin:round;stroke-miterlimit:2;">
    <g>
        <g>
            <path d="M230.432,0C164.603,0 110.791,53.812 110.791,119.641C110.791,185.47 164.603,239.282 230.432,239.282C296.261,239.282 350.073,185.47 350.073,119.641C350.073,53.812 296.261,0 230.432,0Z" style="fill:white;fill-rule:nonzero;"/>
        </g>
    </g>
    <g>
        <g>
            <path d="M435.755,334.89C432.62,327.053 428.441,319.739 423.739,312.947C399.706,277.42 362.613,253.91 320.817,248.163C315.593,247.641 309.846,248.685 305.666,251.82C283.723,268.016 257.601,276.375 230.433,276.375C203.265,276.375 177.143,268.016 155.2,251.82C151.02,248.685 145.273,247.118 140.049,248.163C98.253,253.91 60.637,277.42 37.127,312.947C32.425,319.739 28.245,327.576 25.111,334.89C23.544,338.025 24.066,341.682 25.633,344.817C29.813,352.131 35.037,359.446 39.739,365.715C47.053,375.642 54.89,384.523 63.772,392.882C71.086,400.196 79.445,406.988 87.805,413.78C129.078,444.605 178.711,460.8 229.911,460.8C281.111,460.8 330.744,444.604 372.017,413.78C380.376,407.511 388.735,400.196 396.05,392.882C404.409,384.523 412.768,375.641 420.083,365.715C425.307,358.923 430.01,352.131 434.189,344.817C436.8,341.682 437.322,338.024 435.755,334.89Z" style="fill:white;fill-rule:nonzero;"/>
        </g>
    </g>
</svg>
